<svg xmlns="http://www.w3.org/2000/svg" xmlns:xlink="http://www.w3.org/1999/xlink" id="图层_1" x="0" y="0" version="1.1" viewBox="0 0 143 104" xml:space="preserve" style="enable-background:new 0 0 143 104"><style type="text/css">.st0{fill:url(#Fill-1_1_)}.st1{fill:url(#路径-3_1_)}.st2{fill:url(#形状结合_4_)}.st3{fill:#c4c6cc}.st4{fill:url(#形状结合_5_)}.st5{fill:url(#形状结合_6_)}</style><title>内容为空</title><desc>Created with Sketch.</desc><g id="_x34_.作业"><g id="导入S5-导入完成" transform="translate(-645.000000, -152.000000)"><g id="内容为空" transform="translate(645.000000, 152.000000)"><linearGradient id="Fill-1_1_" x1="71.5" x2="71.5" y1="79" y2="104" gradientUnits="userSpaceOnUse"><stop offset="0" style="stop-color:#fbfcfd"/><stop offset="1" style="stop-color:#f0f2f5"/></linearGradient><path id="Fill-1" d="M21.6,83.1c14.3-3.2,34.8-4.6,48.8-3.9c13.9,0.7,25.5,3.1,26.3,2.5c2.8-1.8,8.8-2.6,8.4-1.9 c-0.3,0.7-4.1,2.9-2.9,3.3c1.2,0.3,13.7,1.7,18.9,2.9c5.2,1,8.5,2.1,9.6,2.1s2.9-1.5,10.3-0.8c0.2,0.3-1.7,0.3-3.3,1.2 c-1.7,0.9-2.9,0.8-2.9,1c0,0.2,1-0.3,2.9,1s5.3,1.6,5.3,1.9c0,0.3-4.3,1.7-11.6-0.5c-1.8-0.6-6.1,4.4-25.9,5.8s-53,2.5-53,2.5 s2,2.5,4.9,3.3c0.2,0.3-1.1,1.2-6.8,0.2c-5.7-1-8.7-3.4-8.7-3.4s-11.2-0.7-15.4-1.4c-4.2-0.7-9.1-2.5-12.5-2.9s-18.5-2.1-12.7-6 C1.1,89.8,7.3,86.3,21.6,83.1z" class="st0"/><linearGradient id="路径-3_1_" x1="40.07" x2="40.07" y1="84.388" y2="83.452" gradientTransform="matrix(93 0 0 -50 -3659 4247)" gradientUnits="userSpaceOnUse"><stop offset="0" style="stop-color:#e6e8eb;stop-opacity:.9917"/><stop offset="1" style="stop-color:#d4d6d9"/></linearGradient><polygon id="路径-3" points="21 58.3 41.7 27 93.3 27 114 58.3 114 77 21 77" class="st1"/><linearGradient id="形状结合_4_" x1="40.07" x2="40.07" y1="84.645" y2="83.653" gradientTransform="matrix(93 0 0 -31 -3659 2683)" gradientUnits="userSpaceOnUse"><stop offset="0" style="stop-color:#edeff2"/><stop offset="1" style="stop-color:#e8eaed"/></linearGradient><path id="形状结合" d="M43.4,90H22.8c-1,0-1.8-0.8-1.8-1.8V59h20.6c1,0,1.8,0.8,1.8,1.8v6.5c0,1,0.7,1.7,1.7,1.8 h0.1h44.7c1,0,1.7-0.7,1.8-1.7v-0.1v-6.5c0-1,0.8-1.8,1.8-1.8H114v29.2c0,1-0.8,1.8-1.8,1.8H91.6H43.4z" class="st2"/><polygon id="形状结合_1_" points="17.3 87 17.3 93.7 24 93.7 24 95 16 95 16 87" class="st3"/><polygon id="形状结合备份" points="111 93.7 117.7 93.7 117.7 87 119 87 119 95 111 95" class="st3"/><g id="编组-4" transform="translate(86.677985, 23.505581) rotate(21.000000) translate(-86.677985, -23.505581) translate(85.177985, 13.005581)"><polygon id="矩形_1_" points="2.1 .6 2.1 3.4 .7 3.4 .7 .6" class="st3"/><polygon id="矩形备份-6" points="2.1 6.3 2.1 9.1 .7 9.1 .7 6.3" class="st3"/><polygon id="矩形备份-7" points="2.1 11.9 2.1 14.7 .7 14.7 .7 11.9" class="st3"/><polygon id="矩形备份-8" points="2.1 17.5 2.1 20.4 .7 20.4 .7 17.5" class="st3"/></g><g id="编组-3" transform="translate(32.002356, 39.084052) rotate(-32.000000) translate(-32.002356, -39.084052) translate(30.502356, 26.084052)"><polygon id="矩形_2_" points="2.1 2.9 .7 2.9 .7 .1 2.1 .1" class="st3"/><polygon id="矩形备份-2" points="2.1 8.6 .7 8.6 .7 5.8 2.1 5.8" class="st3"/><polygon id="矩形备份-3" points="2.1 14.2 .7 14.2 .7 11.4 2.1 11.4" class="st3"/><polygon id="矩形备份-4" points="2.1 19.9 .7 19.9 .7 17 2.1 17" class="st3"/><polygon id="矩形备份-5" points="2.1 25.5 .7 25.5 .7 22.7 2.1 22.7" class="st3"/></g><circle id="椭圆形" cx="100.5" cy="30.5" r="1.5" class="st3"/><circle id="椭圆形备份" cx="56.5" cy="43.5" r="1.5" class="st3"/><linearGradient id="形状结合_5_" x1="39.493" x2="39.493" y1="84.354" y2="83.418" gradientTransform="matrix(39.7166 0 0 -54.6655 -1501.0227 4617.8999)" gradientUnits="userSpaceOnUse"><stop offset="0" style="stop-color:#e6e8eb;stop-opacity:.9917"/><stop offset="1" style="stop-color:#ccced1"/></linearGradient><path id="形状结合_2_" d="M76,6c1.1,0,2,0.9,2,2l0,34h8.4c0.6,0,1,0.4,1,1c0,0.3-0.1,0.6-0.3,0.7L68.2,60.4 c-0.4,0.3-0.9,0.3-1.3,0L48,43.7c-0.4-0.4-0.5-1-0.1-1.4c0.2-0.2,0.5-0.3,0.7-0.3H58l0-34c0-1.1,0.9-2,2-2H76z" class="st4"/><linearGradient id="形状结合_6_" x1="39.493" x2="39.493" y1="84.352" y2="83.394" gradientTransform="matrix(39.7166 0 0 -54.6655 -1501.0227 4611.8999)" gradientUnits="userSpaceOnUse"><stop offset="0" style="stop-color:#e1e3e6"/><stop offset="1" style="stop-color:#f5f7fa"/></linearGradient><path id="形状结合_3_" d="M76,0c1.1,0,2,0.9,2,2l0,34h8.4c0.6,0,1,0.4,1,1c0,0.3-0.1,0.6-0.3,0.7L68.2,54.4 c-0.4,0.3-0.9,0.3-1.3,0L48,37.7c-0.4-0.4-0.5-1-0.1-1.4c0.2-0.2,0.5-0.3,0.7-0.3H58l0-34c0-1.1,0.9-2,2-2H76z" class="st5"/></g></g></g></svg>