<svg xmlns="http://www.w3.org/2000/svg" xmlns:xlink="http://www.w3.org/1999/xlink" id="图层_1" x="0" y="0" version="1.1" viewBox="0 0 48 48" xml:space="preserve" style="enable-background:new 0 0 48 48"><style type="text/css">.st0{fill:#55c7f7}.st1{fill:#7ecf3b}.st2{fill:#f95f5d}.st3{fill:#fdaf42}.st4{fill:none;stroke:#dcdee5}</style><polygon id="路径" points="0 0 48 0 48 16.9 0 16.9" class="st0"/><polygon id="路径_1_" points="0 31.1 48 31.1 48 48 0 48" class="st1"/><polygon id="路径_2_" points="16.9 21.2 31.1 21.2 31.1 28.2 16.9 28.2" class="st2"/><path id="形状" d="M0,15.5v16.9h48V15.5H0z M33.8,30.6H14.3V17.8h19.5V30.6z" class="st2"/><path id="形状_1_" d="M16.9,0h14.1v18.1H16.9V0z M16.9,30.3h14.1V48H16.9V30.3z M16.9,20.2h14.1v8.1H16.9V20.2z" class="st3"/><rect id="矩形" width="47" height="47" x=".5" y=".5" class="st4"/></svg>