<svg xmlns="http://www.w3.org/2000/svg" xmlns:xlink="http://www.w3.org/1999/xlink" id="图层_1" x="0" y="0" version="1.1" viewBox="0 0 158.9 139.7" xml:space="preserve" style="enable-background:new 0 0 158.9 139.7"><style type="text/css">.st0{fill:url(#Fill-1_1_)}.st1{fill:#c4c6cc}.st2{fill:url(#矩形-2_1_)}.st3{fill:url(#矩形_6_)}.st4{fill:#dcdee0}.st5{fill:#d1d3d6}.st6{fill:url(#矩形-3_1_)}.st7{fill:#e5e7ec}.st8{fill:#dcdde0}.st9{fill:url(#路径-13_1_)}.st10{fill:url(#椭圆形_1_)}.st11{fill:url(#SVGID_1_)}.st12{fill:url(#椭圆形_4_)}.st13{fill:url(#SVGID_2_)}.st14{fill:#fff}</style><g id="页面-1"><g id="Exception_x2F_异常提示" transform="translate(-869.000000, -2918.000000)"><g id="搜索为空" transform="translate(869.000000, 2918.000000)"><linearGradient id="Fill-1_1_" x1="84.774" x2="84.774" y1="-243.767" y2="-217.595" gradientTransform="matrix(1 0 0 1 0 352)" gradientUnits="userSpaceOnUse"><stop offset="0" style="stop-color:#fbfcfd"/><stop offset="1" style="stop-color:#f2f4f7"/></linearGradient><path id="Fill-1" d="M33.2,112.5c14.8-3.3,36-4.8,50.5-4.1c14.4,0.7,26.4,3.3,27.3,2.7c2.9-1.9,9-2.8,8.7-2 c-0.3,0.7-4.3,3.1-3,3.4c1.3,0.4,14.1,1.9,19.5,3c5.3,1.1,8.8,2.2,9.9,2.2c1.2,0,3-1.6,10.7-0.8c0.1,0.3-1.7,0.4-3.4,1.3 c-1.7,0.9-3,0.8-3,1s1-0.3,3,1s5.5,1.7,5.5,2s-4.5,1.8-12-0.6c-1.9-0.6-6.3,4.6-26.8,6.1c-20.5,1.5-55,2.6-55,2.6 s2.1,2.7,5.1,3.4c0.2,0.3-1.2,1.3-7.1,0.2c-5.9-1.1-9-3.6-9-3.6s-11.6-0.7-16-1.5c-4.4-0.7-9.4-2.6-12.9-3S6,123.6,12,119.5 C12.1,119.5,18.4,115.8,33.2,112.5z" class="st0"/><path id="形状结合" d="M33.2,115.7v9.4h9.4v1.9H31.4v-11.2L33.2,115.7L33.2,115.7z" class="st1"/><path id="形状结合备份" d="M40.7,3.2h-9.4v9.4h-1.9V3.2l0,0V1.3h11.2L40.7,3.2L40.7,3.2z" class="st1"/><path id="形状结合备份-2" d="M128.9,12.5V3.1h-9.4V1.3h9.4l0,0h1.9v11.2H128.9z" class="st1"/><linearGradient id="矩形-2_1_" x1="1074.131" x2="1074.131" y1="-66.542" y2="-65.606" gradientTransform="matrix(86.25 0 0 108.75 -92563.6641 7246.5142)" gradientUnits="userSpaceOnUse"><stop offset="0" style="stop-color:#ebedf0;stop-opacity:.9917"/><stop offset="1" style="stop-color:#e1e3e6"/></linearGradient><path id="矩形-2" d="M38,8.8h84.2c0.6,0,1,0.4,1,1v106.8c0,0.6-0.4,1-1,1H38c-0.6,0-1-0.4-1-1V9.8 C37,9.2,37.4,8.8,38,8.8z" class="st2"/><linearGradient id="矩形_6_" x1="1071.084" x2="1071.084" y1="-67.331" y2="-66.342" gradientTransform="matrix(71.25 0 0 93.75 -76234.6641 6328.5366)" gradientUnits="userSpaceOnUse"><stop offset="0" style="stop-color:#fff"/><stop offset="1" style="stop-color:#f2f4f7"/></linearGradient><rect id="矩形_1_" width="71.2" height="93.8" x="44.5" y="16.3" class="st3"/><rect id="矩形_2_" width="41.2" height="1.9" x="59.5" y="20.1" class="st4"/><rect id="矩形_3_" width="71.2" height="1.9" x="44.5" y="110.1" class="st5"/><linearGradient id="矩形-3_1_" x1="1058.346" x2="1058.346" y1="-96.899" y2="-95.907" gradientTransform="matrix(41.25 0 0 15 -43576.6562 1458.5291)" gradientUnits="userSpaceOnUse"><stop offset="0" style="stop-color:#edeff2"/><stop offset="1" style="stop-color:#e8eaed"/></linearGradient><rect id="矩形-3" width="41.2" height="15" x="59.5" y="5.1" class="st6"/><g id="编组-3" transform="translate(223.125000, 98.625000)"><rect id="矩形_4_" width="3.8" height="1.9" x="-159.9" y="-61.7" class="st1"/><rect id="矩形备份" width="3.8" height="1.9" x="-152.4" y="-61.7" class="st1"/><rect id="矩形备份-2" width="3.8" height="1.9" x="-144.9" y="-61.7" class="st1"/><rect id="矩形备份-3" width="3.8" height="1.9" x="-137.4" y="-61.7" class="st1"/><rect id="矩形备份-4" width="3.8" height="1.9" x="-129.9" y="-61.7" class="st1"/></g><g id="编组-6" transform="translate(228.750000, 113.625000)"><circle id="椭圆形" cx="-135.5" cy="-35.5" r="24.4" class="st7"/><path id="路径-12" d="M-120.9-16.7l3.1,3.2c-0.6,0.8-0.6,1.5,0,2.2s2.2,2.5,4.7,5.3v-7.5l-6.1-5L-120.9-16.7z" class="st7"/><g id="编组-4" transform="translate(50.226317, 51.709077) rotate(-45.000000) translate(-50.226317, -51.709077) translate(44.601317, 36.709077)"><rect id="矩形_5_" width="3.7" height="9.4" x="-65.5" y="-156.8" class="st8" transform="matrix(-1 1.521109e-05 -1.521109e-05 -1 -127.38 -304.1862)"/><linearGradient id="路径-13_1_" x1="-803.57" x2="-810.075" y1="18.673" y2="12.167" gradientTransform="matrix(0.7071 0.7071 0.7071 -0.7071 492.9375 440.7244)" gradientUnits="userSpaceOnUse"><stop offset="0" style="stop-color:#d7d8db"/><stop offset="1" style="stop-color:#bebfc2"/></linearGradient><path id="路径-13" d="M-65.7-151h4c0.5,0,1,0.4,1,0.9l1.5,20.5c0,0.6-0.4,1-0.9,1.1c0,0,0,0-0.1,0h-7.2 c-0.6,0-1-0.4-1-1v-0.1l1.7-20.5C-66.7-150.6-66.2-151-65.7-151z" class="st9"/></g><g id="编组-5"><g><linearGradient id="椭圆形_1_" x1="-310.035" x2="-310.035" y1="-72.756" y2="-71.756" gradientTransform="matrix(47.75 0 0 47.75 14668.6924 3412.9053)" gradientUnits="userSpaceOnUse"><stop offset=".002" style="stop-color:#dddee0"/><stop offset=".998" style="stop-color:#c3c5c7"/></linearGradient><circle id="椭圆形_2_" cx="-135.5" cy="-37.3" r="23.9" class="st10"/><linearGradient id="SVGID_1_" x1="-310.035" x2="-310.035" y1="-72.511" y2="-72.01" gradientTransform="matrix(47.75 0 0 47.75 14668.6924 3412.9053)" gradientUnits="userSpaceOnUse"><stop offset="0" style="stop-color:#dddee0"/><stop offset="1" style="stop-color:#bec0c2"/></linearGradient><path d="M-135.5-12.9c-13.5,0-24.4-10.9-24.4-24.4s10.9-24.4,24.4-24.4s24.4,10.9,24.4,24.4 S-122-12.9-135.5-12.9z M-135.5-60.7c-12.9,0-23.4,10.5-23.4,23.4s10.5,23.4,23.4,23.4c12.9,0,23.4-10.5,23.4-23.4 S-122.6-60.7-135.5-60.7z" class="st11"/></g><g><linearGradient id="椭圆形_4_" x1="-318.091" x2="-318.091" y1="-76.165" y2="-75.18" gradientTransform="matrix(36.5 0 0 36.5 11474.8193 2724.4221)" gradientUnits="userSpaceOnUse"><stop offset="0" style="stop-color:#fefefe"/><stop offset="1" style="stop-color:#f2f4f7"/></linearGradient><circle id="椭圆形_3_" cx="-135.5" cy="-37.3" r="18.2" class="st12"/><linearGradient id="SVGID_2_" x1="-318.091" x2="-318.091" y1="-75.921" y2="-75.417" gradientTransform="matrix(36.5 0 0 36.5 11474.8193 2724.4221)" gradientUnits="userSpaceOnUse"><stop offset="0" style="stop-color:#f3f4f5"/><stop offset="1" style="stop-color:#f3f5f7"/></linearGradient><path d="M-135.5-18.6c-10.3,0-18.7-8.4-18.7-18.7s8.4-18.7,18.7-18.7c10.3,0,18.7,8.4,18.7,18.7 S-125.2-18.6-135.5-18.6z M-135.5-55c-9.8,0-17.7,7.9-17.7,17.7s7.9,17.7,17.7,17.7s17.7-7.9,17.7-17.7S-125.7-55-135.5-55z" class="st13"/></g><path id="形状结合_1_" d="M-136.4-49.4c5.8,0,10.9,3.3,13.4,8.2c-2.5-1.6-5.5-2.6-8.7-2.6 c-4,0-7.7,1.5-10.5,4l-3.7-6.2C-143.3-48.1-140-49.4-136.4-49.4z" class="st14"/></g><polygon id="路径-14" points="-113 -8.3 -113 -6.1 -105.5 2.7 -105.5 .6" class="st5"/></g></g></g></g></svg>